# xmcd
#
# Track frame offsets:
#	150
#	14882
#	32482
#	43435
#	54075
#	69495
#	89340
#	108267
#	121942
#	136897
#	154935
#	165832
#	182632
#	197127
#	208762
#	226547
#	242242
#	269280
#
# Disc length: 4440 seconds
#
# Revision: 1
# Processed by: cddbd v1.5.1PL2 Copyright (c) Steve Scherf et al.
# Submitted via: audiograbber 1.83.01
#
DISCID=f1115612
DTITLE=Various Artist - The Winners 2006 Disc One
DYEAR=2006
DGENRE=Country
TTITLE0=John Williamson - Chandelier of Stars
TTITLE1=Felicity Urquhart - The Flood
TTITLE2=Paul Kelly and The Stormwater Boys featuring Kasey Chambers - You're Lear
TTITLE2=ning
TTITLE3=Jake Nickolai - Sidewinder
TTITLE4=Adam Harvey - Missing Heroes
TTITLE5=Darren Colston - The Boundary Rider
TTITLE6=Troy Cassar-Daley - Lonesome But Free
TTITLE7=The Sunny Cowgirls - Rousy's Life
TTITLE8=Michael Fix - Something's Cooking
TTITLE9=Bella - She Still Believes
TTITLE10=Stuie French - Ode To Roy And Chet
TTITLE11=Carter and Carter - God Didn't Make Mistakes
TTITLE12=Amos Morris - The Rain Don't Tumble Down In July Here
TTITLE13=Peter Denahy - Peppercorn Tree
TTITLE14=Beccy Cole - Rainbows, Dreams and Butterflies
TTITLE15=Sara Storer and Greg Storer - Chillers Bend
TTITLE16=Samantha McClymont - Cookin' In My Kitchen
TTITLE17=Data Track - Data Track
EXTD=The Winners 2006 featuring the finalists from teh 34th CMAA Country Music 
EXTD=Awards of Australia
EXTT0=
EXTT1=
EXTT2=
EXTT3=
EXTT4=
EXTT5=
EXTT6=
EXTT7=
EXTT8=
EXTT9=
EXTT10=
EXTT11=
EXTT12=
EXTT13=
EXTT14=
EXTT15=
EXTT16=
EXTT17=
PLAYORDER=
